<svg id="Layer_1" data-name="Layer 1" xmlns="http://www.w3.org/2000/svg" viewBox="0 0 384.52 306.04"><defs><style>.cls-1{stroke:#000;stroke-miterlimit:10;}</style></defs><title>backarrow</title><path class="cls-1" d="M642.52,433.74a29.67,29.67,0,0,1-29.68,29.67H360.3l72.2,72.2a29.67,29.67,0,0,1-42,42L267.69,454.72a30.19,30.19,0,0,1-2.84-3.28c-.19-.26-.38-.52-.55-.79a9.53,9.53,0,0,1-.57-.84c-.19-.28-.37-.57-.55-.87s-.29-.5-.42-.75a3.3,3.3,0,0,1-.23-.41,8.79,8.79,0,0,1-.41-.81c-.2-.37-.38-.75-.54-1.13s-.24-.52-.34-.78-.17-.41-.25-.62-.18-.47-.26-.71-.11-.3-.16-.46c-.13-.36-.24-.72-.35-1.09s-.26-.92-.37-1.38-.21-.88-.29-1.33-.17-.88-.23-1.32c0-.19-.06-.38-.08-.57s-.08-.66-.11-1-.08-.87-.1-1.31,0-1,0-1.53,0-1,0-1.53l.1-1.31c0-.34.06-.67.11-1s.05-.38.08-.57l.23-1.32c.08-.45.18-.89.29-1.33s.23-.93.37-1.38.22-.73.35-1.09l.16-.46c.08-.24.17-.47.26-.7l.25-.63c.1-.26.22-.52.34-.78s.17-.39.26-.58l.28-.55a8.79,8.79,0,0,1,.41-.81l.23-.41q.19-.37.42-.75c.18-.3.36-.59.55-.87l.57-.84c.17-.27.36-.53.55-.79l2.84-3.28L390.54,289.91a29.67,29.67,0,0,1,42,42l-72.2,72.2H612.84A29.67,29.67,0,0,1,642.52,433.74Z" transform="translate(-258.5 -280.71)"/></svg>