<svg id="Layer_1" data-name="Layer 1" xmlns="http://www.w3.org/2000/svg" viewBox="0 0 965.74 579.7"><defs><style>.cls-1{fill:#fff;stroke:#000;stroke-miterlimit:10;stroke-width:18px;}</style></defs><title>railstation</title><path class="cls-1" d="M373.58,353.36H246.07V623H160.79V257.36H342.46A162.86,162.86,0,0,0,373.58,353.36Z" transform="translate(-23.11 -52.28)"/><path class="cls-1" d="M851.17,257.36V623H765.9V353.36H638.38a162.86,162.86,0,0,0,31.12-96Z" transform="translate(-23.11 -52.28)"/><path class="cls-1" d="M979.85,106.72V257.36H669.5a163.52,163.52,0,1,0-327,0H32.11V106.72A45.44,45.44,0,0,1,77.56,61.28H934.41A45.43,45.43,0,0,1,979.85,106.72Z" transform="translate(-23.11 -52.28)"/><path class="cls-1" d="M726.36,387.51V623H285.6V387.51H407a163.57,163.57,0,0,0,198,0Z" transform="translate(-23.11 -52.28)"/><path class="cls-1" d="M618.77,257.36A112.79,112.79,0,1,1,506,144.57,112.68,112.68,0,0,1,618.77,257.36Z" transform="translate(-23.11 -52.28)"/></svg>