<svg id="Layer_2" data-name="Layer 2" xmlns="http://www.w3.org/2000/svg" viewBox="0 0 589.03 583.89"><defs><style>.cls-1{fill:#848484;stroke:#000;stroke-miterlimit:10;stroke-width:6px;}</style></defs><title>railmap</title><path class="cls-1" d="M326.74,507.65q13.25,30.66,28.42,47.53a195.9,195.9,0,0,0-31,18.12C279.87,606,151.27,570.13,133.35,568S70.11,500.47,48,469.86,110.61,410.28,140,329,59.57,237.64,57.46,214.42s-24.24-40.11-35.84-66.5S.83,67,13.44,40C30.08,4.38-10.46,19.25,85.82,14.29,98.47,19.43,171.08-1,178.68,16c15.48,34.5,66,43.45,121,35.18C303.5,84,318.11,154,373.25,248.31c25,42.78,32.51,78.05,21.7,102C384.05,374.44,357.33,381.2,354,382c-4.57.49-24.35,3.68-36.16,22.82C304,427.26,307,461.87,326.74,507.65Z" transform="translate(-4.38 -6.11)"/><path class="cls-1" d="M415.12,293.85c8.58,1.14,17.4,2.72,26.55,4.35,19.81,3.53,41.05,7.31,63.53,7.31a178.24,178.24,0,0,0,25-1.7c15.29,26.42,32.35,55.13,36.38,75.27,4.21,21.11,23.19,60.17,6.32,86.55S477.15,514.89,468.72,517c-5.84,1.46-51.67,12.2-94,29.53-10.06-9.09-20.19-25-29.6-46.81C324,450.87,327.82,427,334.73,415.52c7.53-12.47,20.9-13.64,21.37-13.68l.54,0,.73-.14c1.61-.3,39.69-7.81,55.69-42.89C421.36,340.61,422,318.88,415.12,293.85Z" transform="translate(-4.38 -6.11)"/><path class="cls-1" d="M584,163c3.64,22-55.89-4.5-69.59,5s-16.39,6.31-21.66,24.25c-4.45,15.15,12.42,61.91,27.3,92.63-25.92,2.36-50.69-2.05-74.91-6.37-12.86-2.3-25.12-4.48-37.3-5.64a277.48,277.48,0,0,0-17.37-34.66C352.32,172.9,334.73,120,326.7,87.15a317.56,317.56,0,0,1-7.26-39.66c7.9-1.74,15.82-3.81,23.67-6.18,58.53-17.7,43.65-6.42,103.74-23.31S558.23,21.66,583,56C600,79.52,582,150.87,584,163Z" transform="translate(-4.38 -6.11)"/><path d="M318.34,31l-10-.26,10,.24Z" transform="translate(-4.38 -6.11)"/></svg>