<svg id="Layer_1" data-name="Layer 1" xmlns="http://www.w3.org/2000/svg" viewBox="0 0 662.74 547.03"><defs><style>.cls-1{fill:#fff;stroke:#000;stroke-miterlimit:10;stroke-width:10px;}</style></defs><title>trainicon</title><path class="cls-1" d="M482.58,284.62H273.88l-5.32-5.31,13.16,174.21h193L487.9,279.31ZM413.13,411.49a1.22,1.22,0,0,1-1.22,1.22H344.64a1.22,1.22,0,0,1-1.22-1.22V327.65a1.22,1.22,0,0,1,1.22-1.22h67.27a1.22,1.22,0,0,1,1.22,1.22Z" transform="translate(-157.3 -209.96)"/><path class="cls-1" d="M815,525v68.13a71.43,71.43,0,0,1-42.45,65.3,113.19,113.19,0,0,0-225.49,6.13H452.22a113.19,113.19,0,0,0-226-.39,71.43,71.43,0,0,1-63.94-71V525a71.43,71.43,0,0,1,71.43-71.43H743.62A71.43,71.43,0,0,1,815,525Z" transform="translate(-157.3 -209.96)"/><path class="cls-1" d="M422.93,664.51H259.56a81.88,81.88,0,0,1,163.37,0Z" transform="translate(-157.3 -209.96)"/><path class="cls-1" d="M741.53,664.51H578.16A81.88,81.88,0,0,1,741.22,661C741.35,662.16,741.45,663.33,741.53,664.51Z" transform="translate(-157.3 -209.96)"/><path class="cls-1" d="M741.73,670.12a81.89,81.89,0,0,1-163.77,0c0-1.57,0-3.14.14-4.68l.06-.93A81.88,81.88,0,0,1,741.22,661c.13,1.16.23,2.33.31,3.51C741.66,666.36,741.73,668.23,741.73,670.12Z" transform="translate(-157.3 -209.96)"/><path class="cls-1" d="M423.13,670.12a81.88,81.88,0,0,1-163.76,0c0-1.67.05-3.32.15-5,0-.21,0-.43,0-.64a81.88,81.88,0,0,1,163.37,0l.06.93C423.09,667,423.13,668.55,423.13,670.12Z" transform="translate(-157.3 -209.96)"/><path class="cls-1" d="M738.12,345.55v108H620.54v-108a30.48,30.48,0,0,0,9.06,1.37h99.45A30.5,30.5,0,0,0,738.12,345.55Z" transform="translate(-157.3 -209.96)"/><path class="cls-1" d="M759.55,315.88v.55a30.46,30.46,0,0,1-30.5,30.49H629.6a30.46,30.46,0,0,1-30.49-30.49v-.55a30.5,30.5,0,0,1,30.49-30.5h99.45A30.5,30.5,0,0,1,759.55,315.88Z" transform="translate(-157.3 -209.96)"/><path class="cls-1" d="M501.39,255.08a18,18,0,0,1-4.94,16.7l-8.55,8.53h0a18.17,18.17,0,0,1-12.84,5.31H281.4a18.17,18.17,0,0,1-12.84-5.31h0l-8.49-8.47a18.22,18.22,0,0,1-4.73-17.56c5.21-19.72,24.22-34.91,54.26-39.15a17.82,17.82,0,0,1,2.53-.17H464a18,18,0,0,1,8.14,1.92C483.76,222.79,497.35,237.11,501.39,255.08Z" transform="translate(-157.3 -209.96)"/></svg>